<?xml version="1.0" standalone="no"?>
<!DOCTYPE svg PUBLIC "-//W3C//DTD SVG 20010904//EN"
 "http://www.w3.org/TR/2001/REC-SVG-20010904/DTD/svg10.dtd">
<svg version="1.0" xmlns="http://www.w3.org/2000/svg"
 width="1280.000000pt" height="720.000000pt" viewBox="0 0 1280.000000 720.000000"
 preserveAspectRatio="xMidYMid meet">
<metadata>
Created by potrace 1.15, written by Peter Selinger 2001-2017
</metadata>
<g transform="translate(0.000000,720.000000) scale(0.100000,-0.100000)"
fill="#4caf50" stroke="none">
<path d="M4325 5983 c-96 -13 -193 -62 -272 -136 -65 -61 -105 -124 -132 -204
-21 -62 -21 -64 -21 -2047 0 -1919 1 -1986 19 -2045 48 -156 185 -284 348
-326 50 -13 313 -15 2028 -15 2158 0 2025 -4 2139 58 65 35 163 133 198 198
61 113 58 -3 58 2126 0 1383 -3 1962 -11 2000 -35 167 -161 309 -330 370 l-64
23 -1965 1 c-1081 1 -1978 -1 -1995 -3z m1899 -608 c242 -9 441 -17 443 -19 2
-1 -18 -14 -44 -29 -27 -14 -67 -45 -89 -69 -23 -24 -206 -293 -408 -598 -201
-305 -372 -559 -379 -564 -9 -5 -135 66 -387 219 -206 124 -379 230 -383 234
-8 8 466 746 510 792 37 40 108 56 228 51 39 -1 268 -9 509 -17z m777 -41 c78
-23 175 -83 257 -159 56 -52 93 -100 158 -206 48 -77 90 -139 95 -139 5 0 90
41 189 90 99 50 180 88 180 85 0 -3 -117 -185 -261 -405 l-261 -400 -61 0
c-90 0 -930 30 -942 34 -5 2 60 38 145 81 85 42 157 79 159 81 8 7 -256 501
-282 526 l-28 27 80 119 c87 128 153 197 221 232 93 47 253 63 351 34z m998
-1409 c213 -407 225 -441 226 -595 0 -157 -30 -243 -116 -329 -44 -43 -152
-95 -254 -121 -162 -41 -365 -50 -365 -15 0 8 -106 229 -235 492 -130 262
-234 481 -232 487 4 13 791 424 798 417 4 -3 84 -154 178 -336z m-3020 237
l183 -7 230 -395 c126 -217 241 -415 255 -439 14 -24 21 -42 17 -39 -5 3 -77
44 -160 91 -83 48 -156 87 -162 87 -23 0 -325 -463 -398 -610 -87 -175 -106
-235 -113 -364 l-6 -99 -265 459 c-145 252 -275 485 -288 518 -19 46 -23 73
-20 116 4 53 14 73 136 269 73 117 130 216 127 221 -2 4 -74 49 -160 100 -86
51 -157 95 -159 99 -5 7 532 3 783 -7z m1917 -1101 l-6 -190 42 -6 c210 -28
499 -55 595 -55 228 0 351 23 486 91 57 29 75 34 68 22 -47 -88 -560 -918
-587 -951 -19 -23 -53 -52 -76 -63 -40 -20 -45 -21 -295 -8 -201 9 -257 9
-263 0 -4 -7 -10 -65 -14 -129 -10 -180 -18 -254 -26 -245 -4 4 -105 198 -224
430 l-217 421 258 436 c142 239 260 436 262 436 2 0 1 -85 -3 -189z m-1298
-147 c294 -12 536 -25 539 -28 8 -7 -13 -895 -20 -903 -12 -12 -801 18 -866
33 -147 33 -301 146 -358 262 -26 53 -28 65 -27 172 2 135 28 239 95 373 58
114 69 129 88 121 9 -4 256 -17 549 -30z"/>
</g>
</svg>
