<?xml version="1.0" standalone="no"?>
<!DOCTYPE svg PUBLIC "-//W3C//DTD SVG 20010904//EN"
 "http://www.w3.org/TR/2001/REC-SVG-20010904/DTD/svg10.dtd">
<svg version="1.0" xmlns="http://www.w3.org/2000/svg"
 width="1066.000000pt" height="1280.000000pt" viewBox="0 0 1066.000000 1280.000000"
 preserveAspectRatio="xMidYMid meet">
<metadata>
Created by potrace 1.15, written by Peter Selinger 2001-2017
</metadata>
<g transform="translate(0.000000,1280.000000) scale(0.100000,-0.100000)"
fill="#e3e6e8" stroke="none">
<path d="M3625 12793 c-283 -40 -539 -253 -629 -523 -43 -129 -46 -200 -46
-1012 l0 -768 -1193 0 c-1364 0 -1251 7 -1348 -89 -96 -96 -112 -142 -270
-757 -157 -609 -156 -606 -103 -705 31 -56 98 -120 156 -150 84 -43 138 -49
445 -49 l293 0 0 -4027 c0 -4412 -4 -4082 60 -4236 101 -242 337 -427 596
-467 48 -7 1222 -10 3789 -8 l3720 3 99 34 c218 76 392 235 475 436 66 158 61
-187 61 4241 l0 4024 293 0 c307 0 361 6 445 49 58 30 125 94 156 150 53 99
54 96 -103 705 -158 615 -174 661 -270 757 -97 96 16 89 -1347 89 l-1193 0 -4
823 c-3 731 -5 829 -20 885 -77 286 -277 492 -562 578 -57 18 -150 19 -1765
20 -938 1 -1718 -1 -1735 -3z m2708 -1132 c114 -52 171 -128 212 -282 l25 -96
-2 -394 -3 -394 -1228 -3 -1228 -2 3 457 c3 449 4 459 26 514 34 86 90 142
185 189 l82 40 933 0 932 0 63 -29z"/>
</g>
</svg>
