<?xml version="1.0" standalone="no"?>
<!DOCTYPE svg PUBLIC "-//W3C//DTD SVG 20010904//EN"
 "http://www.w3.org/TR/2001/REC-SVG-20010904/DTD/svg10.dtd">
<svg version="1.0" xmlns="http://www.w3.org/2000/svg"
 width="1259.000000pt" height="1280.000000pt" viewBox="0 0 1259.000000 1280.000000"
 preserveAspectRatio="xMidYMid meet">
<metadata>
Created by potrace 1.15, written by Peter Selinger 2001-2017
</metadata>
<g transform="translate(0.000000,1280.000000) scale(0.100000,-0.100000)"
fill="#e3e6e8" stroke="none">
<path d="M2146 12790 c-42 -13 -90 -49 -116 -87 -12 -18 -76 -183 -141 -365
-321 -908 -749 -2115 -1119 -3158 -93 -262 -194 -548 -225 -635 -196 -551
-501 -1412 -522 -1475 -19 -57 -24 -87 -19 -124 7 -63 47 -130 96 -161 22 -14
131 -52 242 -84 112 -33 471 -138 798 -234 327 -97 1011 -298 1520 -447 509
-149 1254 -368 1655 -487 402 -118 755 -217 785 -220 134 -13 254 112 236 246
-4 29 -188 437 -512 1135 -279 600 -508 1094 -510 1098 -5 7 11 12 331 98 127
34 329 89 450 122 1608 436 2594 570 3380 457 737 -106 1236 -445 1513 -1029
136 -286 206 -548 259 -975 25 -203 25 -872 0 -1140 -123 -1306 -524 -2848
-1252 -4815 -83 -224 -87 -238 -83 -302 5 -87 39 -139 118 -181 47 -25 63 -28
111 -24 66 6 108 25 149 70 16 17 119 174 228 347 1375 2187 2265 3981 2723
5490 538 1770 451 3105 -258 3985 -109 135 -313 331 -454 437 -487 365 -1148
603 -1944 698 -494 60 -1217 65 -1810 15 -1218 -105 -2558 -383 -4025 -835
-140 -44 -275 -86 -299 -95 -24 -8 -45 -14 -46 -13 -2 2 -224 579 -495 1283
-270 704 -502 1297 -515 1317 -48 73 -166 115 -249 88z"/>
</g>
</svg>
